<svg width="826.175px" height="216.79999999999998px" xmlns="http://www.w3.org/2000/svg" viewBox="-163.08749999999998 -33.39999999999999 826.175 216.79999999999998" style="background: rgba(100, 83, 59, 0);" preserveAspectRatio="xMidYMid"><defs><linearGradient id="editing-outline-gradient" x1="-0.41354545764260087" x2="1.4135454576426008" y1="0.09326335692419985" y2="0.9067366430758002"><stop offset="0" stop-color="#0579c1"></stop><stop offset="1" stop-color="#184471"></stop></linearGradient><filter id="editing-outline" x="-100%" y="-100%" width="300%" height="300%"><feMorphology in="SourceGraphic" operator="dilate" radius="4" result="outline"></feMorphology><feComposite operator="out" in="outline" in2="SourceAlpha"></feComposite></filter></defs><g filter="url(#editing-outline)"><g transform="translate(-57.82501697540283, 130.05500268936157)"><path d="M9.44 0L9.44-84.70L39.20-84.70L39.20-84.70Q50.70-84.70 56.33-77.68L56.33-77.68L56.33-77.68Q61.95-70.66 61.95-58.81L61.95-58.81L61.95-58.81Q61.95-51.18 60.74-45.07L60.74-45.07L60.74-45.07Q59.53-38.96 54.69-34.30L54.69-34.30L54.69-34.30Q49.85-29.64 40.05-29.64L40.05-29.64L16.21-29.64L16.21 0L9.44 0ZM40.17-36.30L40.17-36.30Q46.95-36.30 50.28-39.93L50.28-39.93L50.28-39.93Q53.60-43.56 54.39-48.16L54.39-48.16L54.39-48.16Q55.18-52.76 55.18-58.44L55.18-58.44L55.18-58.44Q55.18-68.36 51.06-73.33L51.06-73.33L51.06-73.33Q46.95-78.29 39.69-78.29L39.69-78.29L16.21-78.29L16.21-36.30L40.17-36.30ZM73.33 0L73.33-60.62L80.10-60.62L79.74-56.39L79.74-56.39Q85.43-61.71 94.62-61.71L94.62-61.71L94.62-61.71Q97.89-61.71 103.58-60.62L103.58-60.62L101.76-54.45L101.76-54.45Q97.89-55.66 93.65-55.66L93.65-55.66L93.65-55.66Q88.09-55.66 84.09-53.60L84.09-53.60L84.09-53.60Q80.10-51.55 80.10-47.43L80.10-47.43L80.10 0L73.33 0ZM160.81-22.26L160.81-22.26Q160.81-12.10 155.24-5.45L155.24-5.45L155.24-5.45Q149.68 1.21 138.42 1.21L138.42 1.21L138.42 1.21Q127.17 1.21 121.42-5.51L121.42-5.51L121.42-5.51Q115.68-12.22 115.68-22.26L115.68-22.26L115.68-38.24L115.68-38.24Q115.68-49.73 121.54-55.84L121.54-55.84L121.54-55.84Q127.41-61.95 138.42-61.95L138.42-61.95L138.42-61.95Q148.95-61.95 154.88-55.60L154.88-55.60L154.88-55.60Q160.81-49.25 160.81-38.24L160.81-38.24L160.81-22.26ZM154.03-38.24L154.03-38.24Q154.03-47.31 149.86-51.55L149.86-51.55L149.86-51.55Q145.68-55.78 138.42-55.78L138.42-55.78L138.42-55.78Q130.92-55.78 126.69-51.55L126.69-51.55L126.69-51.55Q122.45-47.31 122.45-38.24L122.45-38.24L122.45-21.05L122.45-21.05Q122.45-13.79 126.75-9.32L126.75-9.32L126.75-9.32Q131.04-4.84 138.42-4.84L138.42-4.84L138.42-4.84Q145.93-4.84 149.98-9.26L149.98-9.26L149.98-9.26Q154.03-13.67 154.03-21.05L154.03-21.05L154.03-38.24ZM243.09 0L243.09-41.50L243.09-41.50Q243.09-48.76 239.28-52.15L239.28-52.15L239.28-52.15Q235.47-55.54 229.42-55.54L229.42-55.54L229.42-55.54Q224.70-55.54 218.89-53.48L218.89-53.48L214.41-51.30L214.41-51.30Q216.47-47.19 216.47-41.87L216.47-41.87L216.47 0L209.81 0L209.81-41.50L209.81-41.50Q209.81-48.88 206.00-52.21L206.00-52.21L206.00-52.21Q202.19-55.54 196.02-55.54L196.02-55.54L196.02-55.54Q192.27-55.54 188.28-54.39L188.28-54.39L188.28-54.39Q184.28-53.24 181.02-51.42L181.02-51.42L181.02 0L174.24 0L174.24-60.62L181.02-60.62L180.41-56.75L180.41-56.75Q188.40-61.47 196.75-61.47L196.75-61.47L196.75-61.47Q201.10-61.47 204.91-60.02L204.91-60.02L204.91-60.02Q208.72-58.56 211.39-55.78L211.39-55.78L211.39-55.78Q213.08-56.75 216.47-58.44L216.47-58.44L216.47-58.44Q223.61-61.71 230.26-61.71L230.26-61.71L230.26-61.71Q238.85-61.71 244.30-56.45L244.30-56.45L244.30-56.45Q249.74-51.18 249.74-41.87L249.74-41.87L249.74 0L243.09 0ZM263.18 25.41L263.18-60.62L269.95-60.62L269.35-54.45L269.35-54.45Q272.61-57.96 277.03-59.77L277.03-59.77L277.03-59.77Q281.45-61.59 285.80-61.59L285.80-61.59L285.80-61.59Q297.06-61.59 302.92-55.05L302.92-55.05L302.92-55.05Q308.79-48.52 308.79-38.12L308.79-38.12L308.79-21.30L308.79-21.30Q308.79-10.29 302.62-4.42L302.62-4.42L302.62-4.42Q296.45 1.45 286.29 1.45L286.29 1.45L286.29 1.45Q281.08 1.45 277.09 0L277.09 0L277.09 0Q273.10-1.45 269.95-5.08L269.95-5.08L269.95 22.75L263.18 25.41ZM302.02-38.60L302.02-38.60Q302.02-47.43 297.36-51.42L297.36-51.42L297.36-51.42Q292.70-55.42 286.29-55.42L286.29-55.42L286.29-55.42Q279.75-55.42 275.03-51.49L275.03-51.49L275.03-51.49Q270.31-47.55 269.95-39.20L269.95-39.20L269.95-20.09L269.95-20.09Q269.95-12.22 274.43-8.47L274.43-8.47L274.43-8.47Q278.90-4.72 286.29-4.72L286.29-4.72L286.29-4.72Q292.94-4.72 297.48-8.65L297.48-8.65L297.48-8.65Q302.02-12.58 302.02-20.09L302.02-20.09L302.02-38.60ZM330.93 1.57L330.93 1.57Q324.16-0.36 321.13-4.60L321.13-4.60L321.13-4.60Q318.11-8.83 318.11-15.97L318.11-15.97L318.11-84.70L324.88-84.70L324.88-60.62L339.40-60.62L336.50-54.21L324.88-54.21L324.88-15.97L324.88-15.97Q324.88-6.29 332.87-3.63L332.87-3.63L330.93 1.57ZM375.95 0L351.63-84.70L358.89-84.70L380.54-8.35L402.20-84.70L409.46-84.70L385.26 0L375.95 0ZM458.23-4.23L458.23-4.23Q453.87-1.45 448.31 0L448.31 0L448.31 0Q442.74 1.45 437.17 1.45L437.17 1.45L437.17 1.45Q428.22 1.45 422.96-2.96L422.96-2.96L422.96-2.96Q417.69-7.38 417.69-16.21L417.69-16.21L417.69-41.02L417.69-41.02Q417.69-50.82 423.80-56.27L423.80-56.27L423.80-56.27Q429.91-61.71 439.96-61.71L439.96-61.71L439.96-61.71Q450.00-61.71 455.63-56.33L455.63-56.33L455.63-56.33Q461.25-50.94 461.25-41.38L461.25-41.38L461.25-25.65L424.47-23.59L424.47-16.21L424.47-16.21Q424.47-10.41 428.22-7.50L428.22-7.50L428.22-7.50Q431.97-4.60 438.02-4.60L438.02-4.60L438.02-4.60Q446.49-4.60 455.56-9.44L455.56-9.44L458.23-4.23ZM454.48-42.23L454.48-42.23Q454.48-49.73 449.76-52.82L449.76-52.82L449.76-52.82Q445.04-55.90 439.83-55.90L439.83-55.90L439.83-55.90Q433.18-55.90 428.82-52.27L428.82-52.27L428.82-52.27Q424.47-48.64 424.47-40.90L424.47-40.90L424.47-30.25L454.48-31.70L454.48-42.23ZM473.35 0L473.35-60.62L480.13-60.62L479.76-56.39L479.76-56.39Q485.45-61.71 494.65-61.71L494.65-61.71L494.65-61.71Q497.92-61.71 503.60-60.62L503.60-60.62L501.79-54.45L501.79-54.45Q497.92-55.66 493.68-55.66L493.68-55.66L493.68-55.66Q488.11-55.66 484.12-53.60L484.12-53.60L484.12-53.60Q480.13-51.55 480.13-47.43L480.13-47.43L480.13 0L473.35 0ZM517.03-15.37L517.03-15.37Q517.76-9.92 522.48-7.20L522.48-7.20L522.48-7.20Q527.20-4.48 533.00-4.48L533.00-4.48L533.00-4.48Q538.45-4.48 542.93-6.96L542.93-6.96L542.93-6.96Q547.40-9.44 547.40-15.00L547.40-15.00L547.40-15.00Q547.40-18.63 545.29-20.99L545.29-20.99L545.29-20.99Q543.17-23.35 540.02-24.80L540.02-24.80L540.02-24.80Q536.88-26.26 531.55-27.95L531.55-27.95L531.55-27.95Q525.62-29.89 521.87-31.58L521.87-31.58L521.87-31.58Q518.12-33.27 515.34-36.36L515.34-36.36L515.34-36.36Q512.56-39.45 512.07-44.16L512.07-44.16L511.95-45.62L511.95-45.62Q511.95-49.61 514.19-53.42L514.19-53.42L514.19-53.42Q516.43-57.23 521.09-59.65L521.09-59.65L521.09-59.65Q525.75-62.07 532.76-62.07L532.76-62.07L532.76-62.07Q536.63-62.07 539.60-61.29L539.60-61.29L539.60-61.29Q542.56-60.50 544.26-59.65L544.26-59.65L544.26-59.65Q545.95-58.81 546.32-58.56L546.32-58.56L544.02-53.00L544.02-53.00Q543.65-53.24 542.26-53.97L542.26-53.97L542.26-53.97Q540.87-54.69 538.33-55.42L538.33-55.42L538.33-55.42Q535.79-56.14 532.76-56.14L532.76-56.14L532.76-56.14Q526.96-56.14 522.84-53.42L522.84-53.42L522.84-53.42Q518.73-50.70 518.73-45.86L518.73-45.86L518.73-45.86Q518.73-41.26 522.48-38.84L522.48-38.84L522.48-38.84Q526.23-36.42 533.97-34.00L533.97-34.00L533.97-34.00Q540.51-31.82 544.50-29.89L544.50-29.89L544.50-29.89Q548.49-27.95 551.34-24.38L551.34-24.38L551.34-24.38Q554.18-20.81 554.18-15.13L554.18-15.13L554.18-15.13Q554.18-7.87 548.80-3.02L548.80-3.02L548.80-3.02Q543.41 1.81 533.00 1.81L533.00 1.81L533.00 1.81Q526.11 1.81 521.09-0.54L521.09-0.54L521.09-0.54Q516.07-2.90 513.46-6.78L513.46-6.78L513.46-6.78Q510.86-10.65 510.62-15.37L510.62-15.37L517.03-15.37ZM603.18-4.23L603.18-4.23Q598.83-1.45 593.26 0L593.26 0L593.26 0Q587.70 1.45 582.13 1.45L582.13 1.45L582.13 1.45Q573.18 1.45 567.91-2.96L567.91-2.96L567.91-2.96Q562.65-7.38 562.65-16.21L562.65-16.21L562.65-41.02L562.65-41.02Q562.65-50.82 568.76-56.27L568.76-56.27L568.76-56.27Q574.87-61.71 584.91-61.71L584.91-61.71L584.91-61.71Q594.96-61.71 600.58-56.33L600.58-56.33L600.58-56.33Q606.21-50.94 606.21-41.38L606.21-41.38L606.21-25.65L569.43-23.59L569.43-16.21L569.43-16.21Q569.43-10.41 573.18-7.50L573.18-7.50L573.18-7.50Q576.93-4.60 582.98-4.60L582.98-4.60L582.98-4.60Q591.45-4.60 600.52-9.44L600.52-9.44L603.18-4.23ZM599.43-42.23L599.43-42.23Q599.43-49.73 594.71-52.82L594.71-52.82L594.71-52.82Q590.00-55.90 584.79-55.90L584.79-55.90L584.79-55.90Q578.14-55.90 573.78-52.27L573.78-52.27L573.78-52.27Q569.43-48.64 569.43-40.90L569.43-40.90L569.43-30.25L599.43-31.70L599.43-42.23Z" fill="url(#editing-outline-gradient)"></path></g></g><style>text {
  font-size: 64px;
  font-family: Arial Black;
  dominant-baseline: central;
  text-anchor: middle;
}</style></svg>