
<svg width="452.41249999999997px" height="113.6px" xmlns="http://www.w3.org/2000/svg" viewBox="23.793750000000017 18.200000000000003 452.41249999999997 113.6" style="background: rgba(29, 14, 11, 0);" preserveAspectRatio="xMidYMid"><defs><linearGradient id="editing-outline-gradient" x1="-0.41354545764260087" x2="1.4135454576426008" y1="0.09326335692419985" y2="0.9067366430758002"><stop offset="0" stop-color="#2c6eff"></stop><stop offset="1" stop-color="#0045b1"></stop></linearGradient><filter id="editing-outline" x="-100%" y="-100%" width="300%" height="300%"><feMorphology in="SourceGraphic" operator="dilate" radius="1" result="outline"></feMorphology><feComposite operator="out" in="outline" in2="SourceAlpha"></feComposite></filter></defs><g filter="url(#editing-outline)"><g transform="translate(89.38997173309326, 102.26499938964844)"><path d="M15.87-42.69L15.87-42.69Q23.42-42.69 27.10-39.65L27.10-39.65L27.10-39.65Q30.78-36.61 30.78-30.98L30.78-30.98L30.78-29.44L30.78-29.44Q30.78-23.42 27.20-20.16L27.20-20.16L27.20-20.16Q23.62-16.90 16.38-16.90L16.38-16.90L16.38-16.90Q13.50-16.90 10.24-17.41L10.24-17.41L10.24 0L4.80 0L4.80-42.37L4.80-42.37Q10.24-42.69 15.87-42.69L15.87-42.69ZM15.74-38.08L15.74-38.08Q12.93-38.08 10.24-37.95L10.24-37.95L10.24-22.08L10.24-22.08Q14.08-21.57 16.13-21.57L16.13-21.57L16.13-21.57Q25.34-21.57 25.34-29.70L25.34-29.70L25.34-30.78L25.34-30.78Q25.34-34.43 23.04-36.26L23.04-36.26L23.04-36.26Q20.74-38.08 15.74-38.08L15.74-38.08ZM50.82-32L50.82-32Q51.71-32 52.22-31.87L52.22-31.87L52.22-25.73L52.22-25.73Q51.26-25.92 49.73-25.92L49.73-25.92L49.73-25.92Q45.25-25.92 42.62-21.44L42.62-21.44L42.62 0L37.18 0L37.18-31.23L42.30-31.23L42.30-26.56L42.30-26.56Q44.03-29.18 46.18-30.59L46.18-30.59L46.18-30.59Q48.32-32 50.82-32L50.82-32ZM68.61-32L68.61-32Q74.30-32 77.09-28.96L77.09-28.96L77.09-28.96Q79.87-25.92 79.87-20.35L79.87-20.35L79.87-10.88L79.87-10.88Q79.87-5.31 77.09-2.27L77.09-2.27L77.09-2.27Q74.30 0.77 68.61 0.77L68.61 0.77L68.61 0.77Q62.91 0.77 60.13-2.27L60.13-2.27L60.13-2.27Q57.34-5.31 57.34-10.88L57.34-10.88L57.34-20.35L57.34-20.35Q57.34-25.92 60.13-28.96L60.13-28.96L60.13-28.96Q62.91-32 68.61-32L68.61-32ZM68.61-27.46L68.61-27.46Q65.86-27.46 64.32-25.73L64.32-25.73L64.32-25.73Q62.78-24 62.78-20.80L62.78-20.80L62.78-10.43L62.78-10.43Q62.78-7.23 64.32-5.50L64.32-5.50L64.32-5.50Q65.86-3.78 68.61-3.78L68.61-3.78L68.61-3.78Q71.36-3.78 72.90-5.50L72.90-5.50L72.90-5.50Q74.43-7.23 74.43-10.43L74.43-10.43L74.43-20.86L74.43-20.86Q74.43-24.06 72.90-25.76L72.90-25.76L72.90-25.76Q71.36-27.46 68.61-27.46L68.61-27.46ZM118.21-32L118.21-32Q122.30-32 124.48-29.22L124.48-29.22L124.48-29.22Q126.66-26.43 126.66-21.31L126.66-21.31L126.66 0L121.22 0L121.22-20.54L121.22-20.54Q121.22-26.94 117.12-26.94L117.12-26.94L117.12-26.94Q115.33-26.94 113.44-25.54L113.44-25.54L113.44-25.54Q111.55-24.13 110.14-21.70L110.14-21.70L110.14 0L104.70 0L104.70-20.54L104.70-20.54Q104.70-26.94 100.61-26.94L100.61-26.94L100.61-26.94Q98.82-26.94 96.93-25.54L96.93-25.54L96.93-25.54Q95.04-24.13 93.63-21.70L93.63-21.70L93.63 0L88.19 0L88.19-31.23L93.31-31.23L93.31-26.56L93.31-26.56Q94.98-29.18 97.15-30.59L97.15-30.59L97.15-30.59Q99.33-32 101.70-32L101.70-32L101.70-32Q104.64-32 106.62-30.50L106.62-30.50L106.62-30.50Q108.61-28.99 109.50-26.11L109.50-26.11L109.50-26.11Q111.23-28.99 113.47-30.50L113.47-30.50L113.47-30.50Q115.71-32 118.21-32L118.21-32ZM149.18-32L149.18-32Q153.22-32 155.46-29.25L155.46-29.25L155.46-29.25Q157.70-26.50 157.70-21.31L157.70-21.31L157.70-9.92L157.70-9.92Q157.70-4.93 155.10-2.08L155.10-2.08L155.10-2.08Q152.51 0.77 148.10 0.77L148.10 0.77L148.10 0.77Q146.43 0.77 144.54 0.10L144.54 0.10L144.54 0.10Q142.66-0.58 141.06-1.47L141.06-1.47L141.06 11.84L135.62 11.84L135.62-31.23L140.74-31.23L140.74-26.69L140.74-26.69Q144.26-32 149.18-32L149.18-32ZM148.10-27.14L148.10-27.14Q146.24-27.14 144.35-25.76L144.35-25.76L144.35-25.76Q142.46-24.38 141.06-22.02L141.06-22.02L141.06-6.34L141.06-6.34Q142.40-5.25 144.03-4.64L144.03-4.64L144.03-4.64Q145.66-4.03 147.01-4.03L147.01-4.03L147.01-4.03Q152.26-4.03 152.26-10.69L152.26-10.69L152.26-20.54L152.26-20.54Q152.26-27.14 148.10-27.14L148.10-27.14ZM172.42-39.55L172.42-31.23L180.74-31.23L180.74-26.75L172.42-26.75L172.42-8.45L172.42-8.45Q172.42-6.02 173.41-4.96L173.41-4.96L173.41-4.96Q174.40-3.90 176.51-3.90L176.51-3.90L176.51-3.90Q179.20-3.90 181.76-4.54L181.76-4.54L181.89 0L181.89 0Q179.07 0.77 176.77 0.77L176.77 0.77L176.77 0.77Q171.65 0.77 169.31-1.50L169.31-1.50L169.31-1.50Q166.98-3.78 166.98-8.90L166.98-8.90L166.98-26.75L162.50-26.75L162.50-31.23L166.98-31.23L168-39.55L172.42-39.55ZM210.24-41.92L216-41.92L203.39 0L196.22 0L184-41.92L189.76-41.92L199.81-5.25L210.24-41.92ZM231.55-32L231.55-32Q236.93-32 239.74-29.06L239.74-29.06L239.74-29.06Q242.56-26.11 242.56-20.54L242.56-20.54L242.56-13.95L226.11-13.95L226.11-10.18L226.11-10.18Q226.11-6.91 227.68-5.47L227.68-5.47L227.68-5.47Q229.25-4.03 232.64-4.03L232.64-4.03L232.64-4.03Q235.97-4.03 240.96-5.06L240.96-5.06L241.09-0.32L241.09-0.32Q235.14 0.77 232.58 0.77L232.58 0.77L232.58 0.77Q226.24 0.77 223.46-1.98L223.46-1.98L223.46-1.98Q220.67-4.74 220.67-10.50L220.67-10.50L220.67-20.54L220.67-20.54Q220.67-26.11 223.39-29.06L223.39-29.06L223.39-29.06Q226.11-32 231.55-32L231.55-32ZM231.55-27.46L231.55-27.46Q229.06-27.46 227.58-25.89L227.58-25.89L227.58-25.89Q226.11-24.32 226.11-21.38L226.11-21.38L226.11-18.30L237.12-18.30L237.12-21.18L237.12-21.18Q237.12-24.26 235.62-25.86L235.62-25.86L235.62-25.86Q234.11-27.46 231.55-27.46L231.55-27.46ZM263.55-32L263.55-32Q264.45-32 264.96-31.87L264.96-31.87L264.96-25.73L264.96-25.73Q264-25.92 262.46-25.92L262.46-25.92L262.46-25.92Q257.98-25.92 255.36-21.44L255.36-21.44L255.36 0L249.92 0L249.92-31.23L255.04-31.23L255.04-26.56L255.04-26.56Q256.77-29.18 258.91-30.59L258.91-30.59L258.91-30.59Q261.06-32 263.55-32L263.55-32ZM279.68-32L279.68-32Q282.37-32 286.14-31.23L286.14-31.23L286.02-26.62L286.02-26.62Q282.69-27.39 279.94-27.39L279.94-27.39L279.94-27.39Q274.18-27.39 274.18-23.68L274.18-23.68L274.18-23.10L274.18-23.10Q274.18-21.95 274.78-21.25L274.78-21.25L274.78-21.25Q275.39-20.54 276.99-19.78L276.99-19.78L283.01-16.96L283.01-16.96Q288.45-14.40 288.45-9.47L288.45-9.47L288.45-8.06L288.45-8.06Q288.38-3.65 285.79-1.44L285.79-1.44L285.79-1.44Q283.20 0.77 277.63 0.77L277.63 0.77L277.63 0.77Q274.75 0.77 269.38-0.58L269.38-0.58L269.63-5.44L269.63-5.44Q274.43-4.03 277.50-4.03L277.50-4.03L277.50-4.03Q280.64-4.03 281.86-4.90L281.86-4.90L281.86-4.90Q283.07-5.76 283.07-7.74L283.07-7.74L283.07-8.38L283.07-8.38Q283.07-9.92 282.46-10.82L282.46-10.82L282.46-10.82Q281.86-11.71 280.45-12.35L280.45-12.35L274.24-15.10L274.24-15.10Q271.42-16.38 270.11-18.18L270.11-18.18L270.11-18.18Q268.80-19.97 268.80-22.34L268.80-22.34L268.80-23.23L268.80-23.23Q268.93-27.58 271.52-29.79L271.52-29.79L271.52-29.79Q274.11-32 279.68-32L279.68-32ZM305.41-32L305.41-32Q310.78-32 313.60-29.06L313.60-29.06L313.60-29.06Q316.42-26.11 316.42-20.54L316.42-20.54L316.42-13.95L299.97-13.95L299.97-10.18L299.97-10.18Q299.97-6.91 301.54-5.47L301.54-5.47L301.54-5.47Q303.10-4.03 306.50-4.03L306.50-4.03L306.50-4.03Q309.82-4.03 314.82-5.06L314.82-5.06L314.94-0.32L314.94-0.32Q308.99 0.77 306.43 0.77L306.43 0.77L306.43 0.77Q300.10 0.77 297.31-1.98L297.31-1.98L297.31-1.98Q294.53-4.74 294.53-10.50L294.53-10.50L294.53-20.54L294.53-20.54Q294.53-26.11 297.25-29.06L297.25-29.06L297.25-29.06Q299.97-32 305.41-32L305.41-32ZM305.41-27.46L305.41-27.46Q302.91-27.46 301.44-25.89L301.44-25.89L301.44-25.89Q299.97-24.32 299.97-21.38L299.97-21.38L299.97-18.30L310.98-18.30L310.98-21.18L310.98-21.18Q310.98-24.26 309.47-25.86L309.47-25.86L309.47-25.86Q307.97-27.46 305.41-27.46L305.41-27.46Z" fill="url(#editing-outline-gradient)"></path></g></g><style>text {
  font-size: 64px;
  font-family: Arial Black;
  dominant-baseline: central;
  text-anchor: middle;
}</style></svg>